<?xml version="1.0" ?><!DOCTYPE svg  PUBLIC '-//W3C//DTD SVG 1.1//EN'  'http://www.w3.org/Graphics/SVG/1.1/DTD/svg11.dtd'><svg enable-background="new 0 0 841.891 595.279" height="595.279px" id="Layer_1" version="1.1" viewBox="0 0 841.891 595.279" width="841.891px" xml:space="preserve" xmlns="http://www.w3.org/2000/svg" xmlns:xlink="http://www.w3.org/1999/xlink"><g><path d="M717.778,297.644   c0,163.936-132.903,296.829-296.838,296.829c-163.934,0-296.828-132.894-296.828-296.829   c0-163.938,132.894-296.837,296.828-296.837C584.875,0.807,717.778,133.705,717.778,297.644z" fill="#FFFFFF" stroke="#C6C6C6" stroke-miterlimit="10" stroke-width="2"/><g><path d="M315.032,244.135h49.33v158.579h-49.33V244.135z M339.71,165.309c15.769,0,28.565,12.805,28.565,28.583    c0,15.773-12.796,28.573-28.565,28.573c-15.831,0-28.591-12.8-28.591-28.573C311.118,178.114,323.879,165.309,339.71,165.309" fill="#C6C6C6"/><path d="M395.278,244.135h47.245v21.679h0.674c6.576-12.463,22.664-25.605,46.641-25.605    c49.897,0,59.118,32.828,59.118,75.538v86.968h-49.269v-77.117c0-18.391-0.328-42.053-25.627-42.053    c-25.637,0-29.551,20.05-29.551,40.736v78.435h-49.231V244.135z" fill="#C6C6C6"/></g></g></svg>